<svg xmlns="http://www.w3.org/2000/svg" viewBox="0 0 512 512" fill="currentColor">
  <!-- OSHW-style gear logo -->
  <path d="M288 32h-64v76.8c-13.3 3.5-26 8.6-38 15.1L131.6 69.4l-45.3 45.3 54.5 54.5c-6.5 12-11.6 24.7-15.1 38H48v64h77.7c3.5 13.3 8.6 26 15.1 38l-54.5 54.5 45.3 45.3 54.5-54.5c12 6.5 24.7 11.6 38 15.1V448h64v-77.7c13.3-3.5 26-8.6 38-15.1l54.5 54.5 45.3-45.3-54.5-54.5c6.5-12 11.6-24.7 15.1-38H464v-64h-77.7c-3.5-13.3-8.6-26-15.1-38l54.5-54.5-45.3-45.3-54.5 54.5c-12-6.5-24.7-11.6-38-15.1V32zM256 192a64 64 0 1 1 0 128 64 64 0 0 1 0-128z"/>
</svg>
